<?xml version="1.0" encoding="UTF-8"?>
<svg version="1.1" viewBox="0 0 2000 2000" width="1280" height="1280" xmlns="http://www.w3.org/2000/svg">
<path transform="translate(1495,605)" d="m0 0h113l15 1 5 5 3 4 2 13v713l-1 10-6 9-5 3-49 1-7 3-5 5-3 6-1 8-1 25-3 8-6 5-34 1-18 1-6 3-6 7-2 8-1 31-3 6-8 7-174 1h-87l-21-1-5-3-5-5-2-13-1-25-4-9-5-5-9-3-48-1-5-3-3-5-1-4-1-26-3-14-2-4-5-2-11-3h-42l-7-3-6-5-1-5v-348l2-9 8-7 5-2 48-1 6-4 5-6 1-4 1-32 2-7 5-6 8-4h39l12-1 6-5 3-6 1-5 2-31 4-8 5-4 4-1 277-1 10-4 4-6 1-4 1-48 1-172 2-9 7-8zm-284 376-25 1-7 3-5 6-3 8v351l3 7 8 7 7 2h256l22-1 7-4 5-6 2-11v-345l-3-9-8-7-5-1-50-1z" fill="#FEFEFE"/>
<path transform="translate(904,605)" d="m0 0h47l17 1 6 4 4 5 1 4v730l-2 7-8 7h-49l-9 3-5 5-2 4-1 28-2 11-4 6-5 4-49 1-7 2-5 4-3 6-1 5-2 30-3 9-7 6-2 1h-279l-6-3-6-8-1-3-2-36-7-10-3-2-6-1-47-1-5-2-5-7-1-4-2-35-6-8-4-3-3-1-49-1-7-2-7-9-1-4-1-43v-314l1-115 2-7 7-9 32-1h91l10 1 5 4 4 7 1 4 1 440 1 38 3 7 5 4 4 1h281l7-2 6-8 1-3 1-727 2-10 2-4h2v-2l6-3z" fill="#FEFEFE"/>
</svg>
